<svg width="17" height="18" viewBox="0 0 17 18" fill="none" xmlns="http://www.w3.org/2000/svg">
<g clip-path="url(#clip0_108_6035)">
<path fill-rule="evenodd" clip-rule="evenodd" d="M3.94365 13.3416C3.66626 13.5115 3.45786 13.774 3.35525 14.0827C3.25265 14.3914 3.26245 14.7264 3.38292 15.0286C3.5034 15.3308 3.72679 15.5806 4.01363 15.7341C4.30048 15.8875 4.63232 15.9346 4.95053 15.867C5.26873 15.7995 5.55283 15.6217 5.75263 15.365C5.95243 15.1083 6.05507 14.7892 6.04242 14.4641C6.02977 14.1391 5.90264 13.829 5.6835 13.5886C5.46435 13.3482 5.16729 13.193 4.8448 13.1504C4.82757 13.0887 4.81178 13.0266 4.79744 12.9641C4.73483 12.68 4.68573 12.3931 4.65031 12.1044C4.61231 11.8125 4.59081 11.5187 4.58595 11.2244C4.5852 11.1436 4.5875 11.0627 4.59284 10.9821C4.7697 10.9312 4.94671 10.8857 5.12388 10.8455C5.32664 10.7996 5.4471 11.0386 5.54411 11.2327L5.58365 11.3104H10.9855C11.0908 11.1108 11.3294 10.7927 11.5607 10.8455C11.8077 10.9019 12.0543 10.9683 12.3004 11.0446L12.299 11.0451C12.2981 11.0441 12.2981 11.0445 12.299 11.046C12.3009 11.0524 12.311 11.0828 12.3211 11.1471C12.3328 11.2219 12.3404 11.3177 12.3441 11.4345C12.3505 11.6662 12.3372 11.9481 12.3101 12.2322C12.2825 12.5159 12.2416 12.7904 12.1956 13.0069C12.1855 13.055 12.1754 13.0989 12.1653 13.1384H11.5607C11.4753 13.1384 11.3916 13.1623 11.319 13.2072C11.2464 13.2521 11.1878 13.3163 11.1496 13.3927L10.6899 14.3122C10.6579 14.376 10.6412 14.4464 10.6411 14.5177V15.4373C10.6411 15.5592 10.6896 15.6761 10.7758 15.7624C10.862 15.8486 10.9789 15.897 11.1009 15.897H12.0204V14.9775H11.5607V14.6262L11.8448 14.0579H13.1156L13.3997 14.6262V14.9775H12.94V15.897H13.8595C13.9814 15.897 14.0984 15.8486 14.1846 15.7624C14.2708 15.6761 14.3193 15.5592 14.3193 15.4373V14.5177C14.3192 14.4464 14.3025 14.376 14.2705 14.3122L13.8108 13.3927C13.7726 13.3163 13.714 13.2521 13.6414 13.2072C13.5688 13.1623 13.4851 13.1384 13.3997 13.1384H13.1073C13.1565 12.8933 13.1974 12.6074 13.225 12.3205C13.2554 12.0106 13.271 11.6892 13.2632 11.4087L13.2627 11.3959C15.0963 12.1706 16.6181 13.4446 16.6181 14.7798V17.2763H0.0664062V14.7798C0.0664062 13.3858 1.72618 12.0579 3.66687 11.2961C3.67192 11.5821 3.69905 11.9053 3.73813 12.2184C3.78043 12.5563 3.8379 12.8924 3.90135 13.1692C3.91514 13.2284 3.92924 13.2858 3.94365 13.3416ZM4.66411 14.9844C4.91146 14.9844 5.12388 14.7821 5.12388 14.5177C5.12388 14.2538 4.91146 14.051 4.66411 14.051C4.41675 14.051 4.20434 14.2533 4.20434 14.5177C4.20434 14.7816 4.41675 14.9844 4.66411 14.9844ZM8.34227 9.00047C9.31778 9.00047 10.2533 8.61295 10.9431 7.92316C11.6329 7.23337 12.0204 6.29782 12.0204 5.32231C12.0204 4.3468 11.6329 3.41125 10.9431 2.72146C10.2533 2.03167 9.31778 1.64415 8.34227 1.64415C7.36676 1.64415 6.4312 2.03167 5.74142 2.72146C5.05163 3.41125 4.66411 4.3468 4.66411 5.32231C4.66411 6.29782 5.05163 7.23337 5.74142 7.92316C6.4312 8.61295 7.36676 9.00047 8.34227 9.00047ZM8.34227 9.92001C10.8816 9.92001 12.94 7.86162 12.94 5.32231C12.94 2.783 10.8816 0.724609 8.34227 0.724609C5.80296 0.724609 3.74457 2.783 3.74457 5.32231C3.74457 7.86162 5.80296 9.92001 8.34227 9.92001Z" fill="#8F8F8F"/>
</g>
<defs>
<clipPath id="clip0_108_6035">
<rect width="16.5517" height="16.5517" fill="white" transform="translate(0.0664062 0.724609)"/>
</clipPath>
</defs>
</svg>
