<svg width="134" height="61" viewBox="0 0 134 61" fill="none" xmlns="http://www.w3.org/2000/svg">
<mask id="mask0_108_5256" style="mask-type:alpha" maskUnits="userSpaceOnUse" x="3" y="14" width="25" height="24">
<rect x="0.526367" y="22.0088" width="15.5603" height="27.1028" rx="7.78015" transform="rotate(-45 0.526367 22.0088)" fill="#D9D9D9"/>
</mask>
<g mask="url(#mask0_108_5256)">
<path d="M18.2653 27.1482C19.3993 22.9158 18.7378 17.2934 18.2653 15.0112L5.19463 9.7207L-3.20801 22.4801L13.2859 39.5965C19.1988 34.7894 30.0911 24.6362 26.3566 22.4801C21.6885 19.785 16.8477 32.4387 18.2653 27.1482Z" fill="black" stroke="black" stroke-width="0.622412"/>
</g>
<rect x="25.8022" y="47.5557" width="15.5603" height="17.9095" rx="7.78015" transform="rotate(-45 25.8022 47.5557)" fill="black"/>
<mask id="mask1_108_5256" style="mask-type:alpha" maskUnits="userSpaceOnUse" x="3" y="14" width="25" height="24">
<mask id="mask2_108_5256" style="mask-type:alpha" maskUnits="userSpaceOnUse" x="3" y="14" width="25" height="24">
<rect x="0.526367" y="22.0088" width="15.5603" height="27.1028" rx="7.78015" transform="rotate(-45 0.526367 22.0088)" fill="#D9D9D9"/>
</mask>
<g mask="url(#mask2_108_5256)">
<path d="M18.2653 27.1482C19.3993 22.9158 18.7378 17.2934 18.2653 15.0112L5.19463 9.7207L-3.20801 22.4801L13.2859 39.5965C19.1988 34.7894 30.0911 24.6362 26.3566 22.4801C21.6885 19.785 16.8477 32.4387 18.2653 27.1482Z" fill="black" stroke="black" stroke-width="0.622412"/>
</g>
</mask>
<g mask="url(#mask1_108_5256)">
<g style="mix-blend-mode:hard-light">
<path d="M11.5464 13.7666C17.0804 13.7666 21.6757 17.7713 22.6011 23.04C22.5174 24.489 22.297 25.9525 21.8696 27.3105L21.7202 27.7568C21.6375 27.9895 21.5713 28.188 21.519 28.3545C21.7086 28.154 21.9416 27.8971 22.2153 27.5938C22.3873 27.4032 22.5749 27.1976 22.7749 26.9805V35.9258C21.4502 36.8699 20.1121 37.786 18.8198 38.6436C17.6338 38.2352 16.5225 37.6638 15.5464 36.9277L3.76709 28.0459C1.8387 26.5917 0.759016 24.7402 0.526855 22.8408C1.53165 17.6706 6.08238 13.7667 11.5464 13.7666Z" fill="#DEBEEF"/>
</g>
</g>
<rect x="38.5664" y="11.0059" width="15.5603" height="53.4178" rx="7.78015" transform="rotate(45 38.5664 11.0059)" fill="#59539D"/>
<g style="mix-blend-mode:soft-light">
<rect x="21.2793" y="28.293" width="15.5603" height="28.97" rx="7.78015" transform="rotate(45 21.2793 28.293)" fill="#59539D"/>
</g>
<circle cx="25.1115" cy="9.09885" r="8.40256" fill="#59539D"/>
<path d="M54.6823 36.458V23.7608H58.7454C60.0393 23.7608 61.182 24.0329 62.1736 24.5771C63.1773 25.1212 63.9573 25.871 64.5135 26.8263C65.0819 27.7695 65.3661 28.8639 65.3661 30.1094C65.3661 31.3428 65.0819 32.4372 64.5135 33.3925C63.9573 34.3479 63.1773 35.0976 62.1736 35.6418C61.182 36.1859 60.0393 36.458 58.7454 36.458H54.6823ZM57.1673 34.1362H58.7454C59.3258 34.1362 59.8639 34.0334 60.3597 33.8279C60.8555 33.6223 61.2848 33.3381 61.6476 32.9753C62.0225 32.6126 62.3127 32.1893 62.5183 31.7056C62.7238 31.2098 62.8266 30.6778 62.8266 30.1094C62.8266 29.5411 62.7238 29.015 62.5183 28.5313C62.3127 28.0355 62.0225 27.6062 61.6476 27.2435C61.2848 26.8807 60.8555 26.5965 60.3597 26.3909C59.8639 26.1854 59.3258 26.0826 58.7454 26.0826H57.1673V34.1362ZM71.301 36.6757C70.382 36.6757 69.5597 36.4761 68.8341 36.0771C68.1207 35.6659 67.5584 35.1036 67.1472 34.3902C66.7482 33.6767 66.5486 32.8544 66.5486 31.9233C66.5486 30.9922 66.7482 30.1699 67.1472 29.4564C67.5463 28.7429 68.1025 28.1867 68.816 27.7876C69.5294 27.3765 70.3457 27.1709 71.2647 27.1709C72.1959 27.1709 73.0182 27.3765 73.7316 27.7876C74.4451 28.1867 75.0013 28.7429 75.4004 29.4564C75.7994 30.1699 75.999 30.9922 75.999 31.9233C75.999 32.8544 75.7994 33.6767 75.4004 34.3902C75.0013 35.1036 74.4451 35.6659 73.7316 36.0771C73.0302 36.4761 72.22 36.6757 71.301 36.6757ZM71.301 34.4627C71.7484 34.4627 72.1414 34.3539 72.48 34.1362C72.8186 33.9186 73.0786 33.6223 73.26 33.2474C73.4535 32.8605 73.5502 32.4191 73.5502 31.9233C73.5502 31.4275 73.4535 30.9922 73.26 30.6173C73.0665 30.2303 72.7944 29.928 72.4438 29.7104C72.1052 29.4927 71.7122 29.3839 71.2647 29.3839C70.8294 29.3839 70.4364 29.4927 70.0857 29.7104C69.7471 29.928 69.4811 30.2303 69.2876 30.6173C69.0941 30.9922 68.9974 31.4275 68.9974 31.9233C68.9974 32.4191 69.0941 32.8605 69.2876 33.2474C69.4811 33.6223 69.7532 33.9186 70.1038 34.1362C70.4545 34.3539 70.8536 34.4627 71.301 34.4627ZM79.8635 34.1544L78.4306 32.5037L83.0741 27.3886H85.9219L79.8635 34.1544ZM77.578 36.458V23.7608H79.9724V36.458H77.578ZM83.3825 36.458L80.3714 32.0684L81.9314 30.4178L86.194 36.458H83.3825ZM93.3241 36.458L93.179 34.7892V27.3886H95.5734V36.458H93.3241ZM87.1751 32.0321V27.3886H89.5694V32.0321H87.1751ZM89.5694 32.0321C89.5694 32.6368 89.6359 33.1144 89.7689 33.4651C89.914 33.8037 90.1136 34.0516 90.3675 34.2088C90.6335 34.3539 90.9298 34.4265 91.2563 34.4265C91.8851 34.4385 92.3628 34.2511 92.6893 33.8642C93.0158 33.4651 93.179 32.8907 93.179 32.141H93.9953C93.9953 33.1084 93.8502 33.9307 93.5599 34.6078C93.2697 35.2729 92.8707 35.7869 92.3628 36.1496C91.8549 36.5003 91.2563 36.6757 90.567 36.6757C89.8415 36.6757 89.2248 36.5306 88.7169 36.2403C88.209 35.9501 87.822 35.5027 87.556 34.8981C87.302 34.2813 87.1751 33.4893 87.1751 32.5219V32.0321H89.5694Z" fill="black"/>
<path d="M97.9923 36.458V23.7608H100.695L104.395 29.2387L108.096 23.7608H110.78V36.458H108.313V27.6425L104.395 33.4107L100.477 27.6607V36.458H97.9923ZM117.3 36.6757C116.405 36.6757 115.613 36.4761 114.924 36.0771C114.234 35.6659 113.69 35.1036 113.291 34.3902C112.904 33.6767 112.711 32.8544 112.711 31.9233C112.711 30.9922 112.91 30.1699 113.309 29.4564C113.72 28.7429 114.277 28.1867 114.978 27.7876C115.691 27.3765 116.508 27.1709 117.427 27.1709C118.225 27.1709 118.956 27.3825 119.622 27.8058C120.299 28.2169 120.837 28.8276 121.236 29.6378C121.647 30.4359 121.853 31.4094 121.853 32.5582H114.978L115.196 32.3405C115.196 32.7879 115.304 33.1809 115.522 33.5195C115.752 33.846 116.042 34.1 116.393 34.2813C116.756 34.4506 117.143 34.5353 117.554 34.5353C118.049 34.5353 118.455 34.4325 118.769 34.2269C119.083 34.0093 119.325 33.7311 119.495 33.3925L121.635 34.2269C121.381 34.7348 121.048 35.1762 120.637 35.5511C120.238 35.9138 119.761 36.192 119.204 36.3855C118.648 36.5789 118.013 36.6757 117.3 36.6757ZM115.323 30.9982L115.105 30.7805H119.476L119.277 30.9982C119.277 30.5629 119.174 30.2182 118.969 29.9643C118.763 29.6983 118.509 29.5048 118.207 29.3839C117.916 29.2629 117.632 29.2025 117.354 29.2025C117.076 29.2025 116.78 29.2629 116.465 29.3839C116.151 29.5048 115.879 29.6983 115.649 29.9643C115.431 30.2182 115.323 30.5629 115.323 30.9982ZM129.701 36.458L129.575 34.7711V23.7608H131.969V36.458H129.701ZM126.854 36.6757C126.019 36.6757 125.294 36.4822 124.677 36.0952C124.072 35.7083 123.601 35.1581 123.262 34.4446C122.924 33.7311 122.754 32.8907 122.754 31.9233C122.754 30.9438 122.924 30.1034 123.262 29.402C123.601 28.6885 124.072 28.1383 124.677 27.7514C125.294 27.3644 126.019 27.1709 126.854 27.1709C127.616 27.1709 128.256 27.3644 128.776 27.7514C129.308 28.1383 129.714 28.6885 129.992 29.402C130.27 30.1034 130.409 30.9438 130.409 31.9233C130.409 32.8907 130.27 33.7311 129.992 34.4446C129.714 35.1581 129.308 35.7083 128.776 36.0952C128.256 36.4822 127.616 36.6757 126.854 36.6757ZM127.47 34.4809C127.882 34.4809 128.244 34.372 128.559 34.1544C128.885 33.9367 129.139 33.6344 129.321 33.2474C129.502 32.8605 129.593 32.4191 129.593 31.9233C129.593 31.4275 129.502 30.9861 129.321 30.5992C129.139 30.2122 128.885 29.9159 128.559 29.7104C128.244 29.4927 127.876 29.3839 127.452 29.3839C127.017 29.3839 126.636 29.4927 126.31 29.7104C125.983 29.9159 125.723 30.2122 125.53 30.5992C125.336 30.9861 125.239 31.4275 125.239 31.9233C125.239 32.4191 125.336 32.8605 125.53 33.2474C125.723 33.6344 125.983 33.9367 126.31 34.1544C126.648 34.372 127.035 34.4809 127.47 34.4809Z" fill="#59539D"/>
</svg>
