<svg width="1128" height="1314" viewBox="0 0 1128 1314" fill="none" xmlns="http://www.w3.org/2000/svg">
<path fill-rule="evenodd" clip-rule="evenodd" d="M946.787 760.494C946.787 760.494 1055.51 886.714 1025.3 931.214C995.077 975.714 939.247 929.154 916.097 899.844C892.947 870.534 878.327 855.344 878.327 855.344L883.497 785.014L946.787 760.494Z" fill="#2C2767"/>
<path fill-rule="evenodd" clip-rule="evenodd" d="M276.267 789.18C276.267 789.18 189.815 912.988 201.123 967.651C212.432 1022.3 273.264 978.072 305.97 947.679C338.687 917.298 351.721 886.858 351.721 886.858L276.267 789.18Z" fill="#2C2767"/>
<path fill-rule="evenodd" clip-rule="evenodd" d="M919.639 752.676C919.639 752.676 808.388 1306.51 617.02 1304.24C459.942 1302.37 418.342 1157.08 374.193 1077.62C325.92 990.747 264.909 763.158 264.909 763.158L919.639 752.676Z" fill="#59539D"/>
<path fill-rule="evenodd" clip-rule="evenodd" d="M919.639 752.676C919.639 752.676 808.388 1306.51 617.02 1304.24C459.942 1302.37 418.342 1157.08 374.193 1077.62C325.92 990.747 264.909 763.158 264.909 763.158L919.639 752.676Z" fill="#59539D"/>
<mask id="mask0_191_12882" style="mask-type:luminance" maskUnits="userSpaceOnUse" x="264" y="752" width="656" height="553">
<path d="M919.639 752.676C919.639 752.676 808.388 1306.51 617.02 1304.24C459.942 1302.37 418.342 1157.08 374.193 1077.62C325.92 990.747 264.909 763.158 264.909 763.158L919.639 752.676Z" fill="white"/>
</mask>
<g mask="url(#mask0_191_12882)">
<path fill-rule="evenodd" clip-rule="evenodd" d="M910.418 781.274C910.418 781.274 876.178 874.554 567.226 893.434C398.256 903.754 237.425 810.994 237.425 810.994L258.145 771.454L910.418 781.274Z" fill="#3C3593"/>
</g>
<path fill-rule="evenodd" clip-rule="evenodd" d="M1063.25 591.145C1063.25 591.145 1137.11 99.7346 640.327 12.0496C156.807 -73.2924 51.3168 322.525 50.2068 326.607C49.0868 330.688 -49.9631 736.315 373.887 836.815C762.777 929.035 1024.88 767.105 1063.25 591.145Z" fill="#59539D"/>
<path fill-rule="evenodd" clip-rule="evenodd" d="M1041.53 347.688L1052.9 589.015C1052.9 589.015 1081.1 582.363 1102.34 577.356C1115.72 574.189 1124.97 561.937 1124.34 548.198C1122.66 512.202 1119.51 443.988 1117.75 406.241C1116.99 389.866 1106.9 375.371 1091.8 368.977C1069.96 359.727 1041.53 347.688 1041.53 347.688Z" fill="#2C2767"/>
<path fill-rule="evenodd" clip-rule="evenodd" d="M1023.65 577.626C1029.1 486.976 1032.43 314.216 911.485 197.056C853.915 141.29 768.195 98.1211 641.135 82.3991C247.145 33.6471 127.635 418.606 198.025 593.906C254.425 734.356 490.565 854.216 710.365 808.866C930.155 763.516 1017.73 676.146 1023.65 577.626Z" fill="white"/>
<path fill-rule="evenodd" clip-rule="evenodd" d="M1023.65 577.626C1029.1 486.976 1032.43 314.216 911.485 197.056C853.915 141.29 768.195 98.1211 641.135 82.3991C247.145 33.6471 127.635 418.606 198.025 593.906C254.425 734.356 490.565 854.216 710.365 808.866C930.155 763.516 1017.73 676.146 1023.65 577.626Z" fill="white"/>
<mask id="mask1_191_12882" style="mask-type:luminance" maskUnits="userSpaceOnUse" x="178" y="78" width="848" height="741">
<path d="M1023.65 577.626C1029.1 486.976 1032.43 314.216 911.485 197.056C853.915 141.29 768.195 98.1211 641.135 82.3991C247.145 33.6471 127.635 418.606 198.025 593.906C254.425 734.356 490.565 854.216 710.365 808.866C930.155 763.516 1017.73 676.146 1023.65 577.626Z" fill="white"/>
</mask>
<g mask="url(#mask1_191_12882)">
<path fill-rule="evenodd" clip-rule="evenodd" d="M538.887 81.2397C538.887 81.2397 419.897 114.413 334.537 252.988C249.177 391.565 202.887 558.795 253.507 655.115C304.127 751.425 301.437 757.835 301.437 757.835L206.437 682.235C206.437 682.235 143.437 569.815 136.507 522.165C129.577 474.525 143.047 305.849 149.777 268.976C156.517 232.102 208.117 139.02 208.117 139.02L451.257 50.5537L538.887 81.2397Z" fill="#3C3593" fill-opacity="0.11"/>
</g>
<path fill-rule="evenodd" clip-rule="evenodd" d="M44.0857 334.118C17.1857 338.389 -1.92448 362.6 0.155518 389.755C3.79552 437.175 9.31546 509.005 12.8455 554.925C13.6655 565.645 19.2955 575.425 28.1455 581.535C37.0055 587.645 48.1456 589.425 58.4656 586.375C84.1756 578.795 112.105 570.565 112.105 570.565L106.466 324.214C106.466 324.214 73.8157 329.398 44.0857 334.118Z" fill="#2C2767"/>
<path fill-rule="evenodd" clip-rule="evenodd" d="M611.263 971.722C577.631 920.7 510.366 920.7 476.734 946.21C443.087 971.722 443.087 1022.74 476.734 1073.76C496.312 1105.58 541.464 1137.4 585.128 1161.89C601.367 1171 621.173 1171 637.413 1161.89C681.077 1137.4 726.229 1105.58 745.807 1073.76C779.439 1022.74 779.439 971.722 745.807 946.21C712.175 920.7 644.91 920.7 611.263 971.722Z" fill="#EFBEE4"/>
<path fill-rule="evenodd" clip-rule="evenodd" d="M592.256 1017.51V1108.2C592.256 1113.27 596.38 1117.4 601.455 1117.4H619.853C624.935 1117.4 629.053 1113.27 629.053 1108.2V1017.51C629.053 1012.43 624.935 1008.31 619.853 1008.31H601.455C596.38 1008.31 592.256 1012.43 592.256 1017.51Z" fill="white"/>
<path fill-rule="evenodd" clip-rule="evenodd" d="M656.275 1040.93L565.589 1040.97C560.514 1040.97 556.392 1045.1 556.395 1050.18L556.403 1068.57C556.405 1073.66 560.532 1077.77 565.606 1077.77L656.292 1077.73C661.374 1077.72 665.488 1073.6 665.486 1068.52L665.477 1050.12C665.475 1045.05 661.357 1040.93 656.275 1040.93Z" fill="white"/>
<path fill-rule="evenodd" clip-rule="evenodd" d="M775.779 443.885V482.865C775.779 509.815 797.659 531.685 824.599 531.685H872.299C899.239 531.685 921.119 509.815 921.119 482.865V443.885C921.119 416.945 899.239 395.065 872.299 395.065H824.599C797.659 395.065 775.779 416.945 775.779 443.885Z" fill="#69BAC9"/>
<path fill-rule="evenodd" clip-rule="evenodd" d="M824.328 459.011V483.473C824.328 498.8 836.768 511.236 852.095 511.236H874.259C889.585 511.236 902.025 498.8 902.025 483.473V459.011C902.025 443.689 889.585 431.248 874.259 431.248H852.095C836.768 431.248 824.328 443.689 824.328 459.011Z" fill="white"/>
<path fill-rule="evenodd" clip-rule="evenodd" d="M406.513 440.002L401.327 478.636C397.742 505.346 416.517 529.933 443.218 533.517L490.494 539.863C517.194 543.448 541.789 524.683 545.375 497.973L550.561 459.339C554.146 432.639 535.371 408.042 508.671 404.458L461.395 398.111C434.694 394.527 410.098 413.302 406.513 440.002Z" fill="#69BAC9"/>
<path fill-rule="evenodd" clip-rule="evenodd" d="M454.44 458.425L450.29 482.531C447.69 497.637 457.84 512.003 472.945 514.603L494.788 518.362C509.892 520.962 524.261 510.817 526.861 495.712L531.011 471.605C533.61 456.505 523.461 442.134 508.357 439.534L486.514 435.774C471.409 433.174 457.039 443.325 454.44 458.425Z" fill="white"/>
<path d="M907.857 599.48C881.233 599.48 859.651 590.16 859.651 578.665C859.651 567.169 881.233 557.85 907.857 557.85C934.48 557.85 956.062 567.169 956.062 578.665C956.062 590.16 934.48 599.48 907.857 599.48Z" fill="#FDCEEC"/>
<path d="M401.235 580.355C375.599 573.172 357.331 558.376 360.432 547.307C363.533 536.237 386.83 533.086 412.466 540.268C438.103 547.451 456.371 562.247 453.269 573.317C450.168 584.386 426.872 587.537 401.235 580.355Z" fill="#FDCEEC"/>
</svg>
